:SAMPLES-PER-SECOND 30
:FULLY-SPECIFIED
:DEGREES
314
root  -45.6289 34.3731 6.5265 -170.904 66.17 -177.825
RightUpLeg  -8.61355 -23.8945 -0.357723
RightLeg  34.7684 -6.52675 -3.93412
RightFoot  -10.7155 0.101232 1.6676
RightToes  -18.437 -0.0729182 -0.164138
Spine  -1.73778 2.22348 -5.00473
Spine1  -3.58304 4.2541 -9.23437
HEad  -96.3599 -14.0669 4.37185
LeftShoulder1  -1.94126e-019 -3.10601e-018 -2.51263e-017
LeftArm  -12.2744 18.6521 -70.9792
LeftForeArm  25.5511 -26.4632 -4.27365
LeftHand  -0.387186 -0.901963 7.27318
RightShoulder  -4.96962e-017 0 -2.36833e-017
RightArm  -0.531681 -4.73396 78.9716
RightForeArm  60.9494 25.0847 3.02078
RightHand  -0.317178 -0.498554 -7.51831
LeftUpLeg  -23.8013 8.1167 -7.67284
LeftLeg  16.0324 16.3723 3.5296
LeftFoot  -7.89036 -0.162941 -2.20076
LeftToes  -7.80336 1.83942e-006 5.51297e-008
315
root  -46.3959 34.2814 6.51797 -171.27 66.9931 -178.2
RightUpLeg  -8.99835 -25.5176 -0.438249
RightLeg  36.9413 -6.11256 -4.01189
RightFoot  -11.3925 0.110474 1.69351
RightToes  -19.7935 -0.0803107 -0.17516
Spine  -1.68505 2.28379 -4.5688
Spine1  -3.46225 4.3845 -8.3716
HEad  -94.8037 -13.0262 5.12411
LeftShoulder1  -1.94126e-019 -3.10601e-018 -2.51263e-017
LeftArm  -10.9858 19.6986 -72.5063
LeftForeArm  25.9968 -29.2425 -4.87654
LeftHand  -0.36907 -1.21119 6.63796
RightShoulder  -4.96962e-017 0 -2.36833e-017
RightArm  0.065091 -2.7699 79.1543
RightForeArm  58.0268 27.0825 3.07659
RightHand  -0.329024 -0.74477 -8.18801
LeftUpLeg  -24.5282 9.20793 -8.68598
LeftLeg  15.3818 16.6015 3.38404
LeftFoot  -8.73958 -0.202474 -2.48762
LeftToes  -7.90092 1.83942e-006 5.51297e-008
316
root  -47.1923 34.1698 6.53621 -171.853 68.6296 -178.652
RightUpLeg  -9.26552 -25.7756 -0.548568
RightLeg  38.3728 -5.35666 -3.71696
RightFoot  -11.4222 0.0951196 1.53244
RightToes  -21.9849 -0.0927982 -0.192587
Spine  -1.64298 2.47297 -4.21521
Spine1  -3.37683 4.77221 -7.6756
HEad  -92.1267 -12.2042 6.31884
LeftShoulder1  -1.94126e-019 -3.10601e-018 -2.51263e-017
LeftArm  -8.42012 20.5982 -73.2899
LeftForeArm  26.896 -31.3643 -5.32884
LeftHand  -0.359288 -1.52448 6.19722
RightShoulder  -4.96962e-017 0 -2.36833e-017
RightArm  0.73006 -0.981001 79.9118
RightForeArm  55.9794 29.3014 3.46433
RightHand  -0.368357 -0.586601 -8.88923
LeftUpLeg  -25.3341 10.6455 -9.65021
LeftLeg  14.9267 16.9866 3.32223
LeftFoot  -9.46457 -0.242963 -2.77276
LeftToes  -6.96921 1.83942e-006 5.51297e-008
317
root  -48.0258 34.0073 6.60078 -172.349 70.7411 -178.842
RightUpLeg  -9.07197 -24.6115 -0.423923
RightLeg  38.0693 -4.79856 -3.29613
RightFoot  -10.6296 0.0676494 1.30486
RightToes  -23.761 -0.103402 -0.206353
Spine  -1.52603 2.65935 -3.87117
Spine1  -3.14303 5.16117 -6.99263
HEad  -88.9565 -11.6954 7.73325
LeftShoulder1  -1.94126e-019 -3.10601e-018 -2.51263e-017
LeftArm  -5.87616 21.3225 -73.5733
LeftForeArm  28.6781 -32.9262 -5.61155
LeftHand  -0.358522 -2.22149 5.6691
RightShoulder  -4.96962e-017 0 -2.36833e-017
RightArm  1.92059 0.702025 81.084
RightForeArm  54.1738 32.001 4.13113
RightHand  -0.390938 -0.382673 -9.07229
LeftUpLeg  -26.7501 12.7405 -10.5239
LeftLeg  15.5592 17.291 3.57492
LeftFoot  -9.82432 -0.26745 -2.94958
LeftToes  -6.02264 1.83942e-006 5.51297e-008
318
root  -48.9137 33.7525 6.74114 -172.376 72.8472 -178.366
RightUpLeg  -7.91639 -22.4646 0.0597793
RightLeg  34.6336 -5.36333 -3.22252
RightFoot  -8.61762 0.0437418 1.16204
RightToes  -32.5086 -0.161572 -0.269018
Spine  -1.27431 2.72939 -3.54102
Spine1  -2.63696 5.33023 -6.32996
HEad  -86.2902 -11.3475 9.74536
LeftShoulder1  -1.94126e-019 -3.10601e-018 -2.51263e-017
LeftArm  -3.90046 21.8393 -73.4497
LeftForeArm  30.0521 -34.3691 -5.89964
LeftHand  -0.363539 -2.67451 5.45484
RightShoulder  -4.96962e-017 0 -2.36833e-017
RightArm  3.48461 2.26861 82.6029
RightForeArm  53.4148 34.957 4.84985
RightHand  -0.416347 0.023851 -8.97461
LeftUpLeg  -29.017 15.2236 -11.1927
LeftLeg  17.6235 16.9738 4.14268
LeftFoot  -9.49725 -0.2473 -2.8148
LeftToes  -6.28902 1.83942e-006 5.51297e-008
319
root  -49.8401 33.4126 6.95884 -170.502 75.0121 -175.617
RightUpLeg  -5.77825 -20.2765 1.12624
RightLeg  28.9143 -5.56148 -2.62245
RightFoot  -15.0114 0.167225 1.8471
RightToes  -19.7604 -0.0801268 -0.174893
Spine  -0.812788 2.75401 -3.05043
Spine1  -1.70604 5.42607 -5.33661
HEad  -83.8916 -11.4113 11.3748
LeftShoulder1  -1.94126e-019 -3.10601e-018 -2.51263e-017
LeftArm  -2.67755 22.0964 -73.3157
LeftForeArm  30.0112 -35.4089 -6.17502
LeftHand  -0.370281 -2.56006 5.62373
RightShoulder  -4.96962e-017 0 -2.36833e-017
RightArm  5.19003 3.80353 84.0497
RightForeArm  53.6744 38.0011 5.59203
RightHand  -0.443721 0.478767 -8.86084
LeftUpLeg  -32.3447 18.839 -11.5184
LeftLeg  21.7251 15.8357 5.07674
LeftFoot  -9.45964 -0.23286 -2.65227
LeftToes  -7.59284 1.83942e-006 5.51297e-008
320
root  -50.7586 33.1417 7.28383 -159.508 77.5276 -162.873
RightUpLeg  -5.10019 -16.0746 4.2963
RightLeg  27.2201 -6.50165 -2.82934
RightFoot  -17.6142 0.285139 2.42298
RightToes  -14.9577 -0.0551692 -0.135097
Spine  -0.121808 2.94082 -1.92131
Spine1  -0.310294 5.89217 -3.0709
HEad  -81.6013 -11.4299 12.1422
LeftShoulder1  -1.94126e-019 -3.10601e-018 -2.51263e-017
LeftArm  -2.67671 22.0426 -73.9821
LeftForeArm  29.3575 -34.7438 -6.04
LeftHand  -0.371768 -2.50818 5.67881
RightShoulder  -4.96962e-017 0 -2.36833e-017
RightArm  6.89771 5.1318 85.044
RightForeArm  54.783 39.9657 6.04538
RightHand  -0.517174 1.32001 -9.08638
LeftUpLeg  -36.2073 25.1124 -10.2233
LeftLeg  27.44 15.2872 6.61601
LeftFoot  -11.3957 -0.337714 -3.2222
LeftToes  -3.21709 1.83942e-006 5.51297e-008
321
root  -51.6365 33.0584 7.46294 -141.32 80.8902 -143.081
RightUpLeg  -8.06227 -12.5895 6.0549
RightLeg  32.0594 -5.64593 -3.05286
RightFoot  -16.114 0.208238 2.05033
RightToes  -15.6153 -0.0583879 -0.140667
Spine  0.644256 3.23402 -0.869754
Spine1  1.26978 6.5139 -0.937452
HEad  -79.3695 -11.1159 11.9737
LeftShoulder1  -1.94126e-019 -3.10601e-018 -2.51263e-017
LeftArm  -4.94886 22.0225 -75.7222
LeftForeArm  28.5999 -31.6458 -5.30941
LeftHand  -0.364066 -2.11411 5.82806
RightShoulder  -4.96962e-017 0 -2.36833e-017
RightArm  8.56904 5.81235 85.9977
RightForeArm  57.2663 41.5424 6.35567
RightHand  -0.664408 2.45576 -10.0217
LeftUpLeg  -38.7271 32.6941 -9.54935
LeftLeg  31.477 19.5928 10.0199
LeftFoot  -15.1302 -0.801373 -5.86698
LeftToes  6.24529 1.83942e-006 5.51297e-008
322
root  -52.2964 33.1266 7.50256 -124.174 82.4649 -123.96
RightUpLeg  -6.66422 -15.5813 5.48101
RightLeg  30.6792 -0.697337 -0.365912
RightFoot  -14.1951 -0.0160878 0.418541
RightToes  -19.9089 -0.0809516 -0.176089
Spine  1.02455 2.94471 -0.0983704
Spine1  2.06478 5.9579 0.602746
HEad  -74.5167 -11.4165 10.3337
LeftShoulder1  -1.94126e-019 -3.10601e-018 -2.51263e-017
LeftArm  -5.66588 23.6045 -76.825
LeftForeArm  26.8558 -27.9617 -4.5621
LeftHand  -0.335566 -1.58719 5.75075
RightShoulder  -4.96962e-017 0 -2.36833e-017
RightArm  10.3822 3.98965 86.0513
RightForeArm  58.9838 42.7824 6.62136
RightHand  -0.752881 3.47265 -10.0898
LeftUpLeg  -38.4146 38.8573 -8.82718
LeftLeg  33.1871 23.0996 12.513
LeftFoot  -15.829 -1.06939 -7.51949
LeftToes  1.72443 1.83942e-006 5.51297e-008
323
root  -52.8721 33.2729 7.4736 -118.435 82.2679 -117.234
RightUpLeg  -5.79752 -16.6468 5.64995
RightLeg  28.8911 0.722169 0.331088
RightFoot  -12.3725 -0.0542628 0.0386608
RightToes  -21.6978 -0.091124 -0.190331
Spine  0.984909 1.97888 0.4525
Spine1  1.99487 4.01193 1.68818
HEad  -68.4818 -12.8791 9.61874
LeftShoulder1  -1.94126e-019 -3.10601e-018 -2.51263e-017
LeftArm  -5.03559 25.0771 -76.849
LeftForeArm  27.5075 -25.008 -4.08769
LeftHand  -0.147518 -2.17474 2.45384
RightShoulder  -4.96962e-017 0 -2.36833e-017
RightArm  10.5303 0.819323 85.2174
RightForeArm  60.6071 44.4662 7.04561
RightHand  -0.715256 4.60257 -8.58055
LeftUpLeg  -37.6876 41.0472 -7.47959
LeftLeg  34.3224 22.0885 12.5526
LeftFoot  -14.9775 -0.921277 -6.83825
LeftToes  2.01128 1.83942e-006 5.51297e-008
